<svg xmlns="http://www.w3.org/2000/svg" width="320" height="240" viewBox="0 0 320 240" fill="none">
  <rect width="320" height="240" fill="#F8FAFC"/>
  <g opacity="0.24" stroke="#334155" stroke-width="1.1">
    <path d="M34 28C66 12 104 12 138 28C172 44 210 44 244 28C278 12 304 12 322 22"/>
    <path d="M14 76C58 44 116 44 160 76C204 108 258 108 322 70"/>
    <path d="M6 126C48 94 106 94 154 126C202 158 260 158 326 118"/>
    <path d="M-4 178C46 140 114 140 168 178C222 216 278 214 326 174"/>
    <path d="M24 226C74 194 138 194 188 226C238 258 284 254 326 218"/>
  </g>
</svg>
